<svg
  xmlns="http://www.w3.org/2000/svg"
  width="45"
  height="45"
  viewBox="0 0 45 45"
  fill="none"
>
  <path
    d="M22.5 2.8125C11.6156 2.8125 2.8125 11.8406 2.8125 23.0063C2.8125 31.8375 8.325 39.3469 16.0031 42.1031C17.0438 42.3563 16.875 41.625 16.875 41.0906V37.575C10.9125 38.3063 10.6594 34.2281 10.2656 33.5531C9.45 32.1469 7.5375 31.7813 8.12813 31.1063C9.47813 30.375 10.8844 31.275 12.4875 33.7219C13.6406 35.4938 15.9188 35.1844 17.0719 34.9031C17.325 33.8344 17.8594 32.9063 18.5906 32.1469C12.4031 31.0219 9.81563 27.1406 9.81563 22.5281C9.81563 20.2781 10.5188 18.225 11.9531 16.5656C11.0531 13.8375 12.0375 11.5031 12.1781 11.1375C14.7375 10.9125 17.3813 13.0219 17.6063 13.1906C19.0688 12.7969 20.7281 12.5719 22.5844 12.5719C24.4406 12.5719 26.1 12.7969 27.5906 13.1906C28.0969 12.7969 30.5438 10.9969 32.9344 11.1938C33.075 11.5313 34.0313 13.8375 33.1875 16.5375C34.6219 18.1969 35.325 20.2781 35.325 22.5281C35.325 27.1406 32.7375 31.0219 26.5219 32.1469C27.0573 32.6851 27.4783 33.3261 27.7594 34.0313C28.0406 34.7344 28.1813 35.4938 28.1813 36.2531V41.3438C28.2094 41.7375 28.1812 42.1594 28.8281 42.1594C36.6187 39.4594 42.2156 31.8938 42.2156 23.0063C42.2156 11.8406 33.4125 2.78438 22.5281 2.78438L22.5 2.8125Z"
    fill="#626262"
  />
</svg>