<svg width="67" height="69" viewBox="0 0 67 69" fill="none" xmlns="http://www.w3.org/2000/svg">
<path d="M4.48256 52.192C4.06656 52.192 3.73056 52.144 3.47456 52.048C3.25056 51.984 3.13856 51.84 3.13856 51.616C3.13856 51.392 3.26656 51.232 3.52256 51.136C3.81056 51.008 4.19456 50.88 4.67456 50.752C5.44256 50.56 6.08256 50.16 6.59456 49.552C7.13856 48.944 7.49056 48.096 7.65056 47.008C7.97056 44.608 8.25856 42.192 8.51456 39.76C8.77056 37.296 8.99456 34.96 9.18656 32.752C9.37856 30.512 9.50656 28.528 9.57056 26.8C9.57056 26.576 9.57056 26.32 9.57056 26.032C9.57056 25.744 9.55456 25.472 9.52256 25.216C9.52256 24.864 9.45856 24.544 9.33056 24.256C9.23456 23.936 9.01056 23.664 8.65856 23.44C8.14656 23.024 7.63456 22.736 7.12256 22.576C6.61056 22.384 6.03456 22.224 5.39456 22.096C5.04256 22.032 4.75456 21.92 4.53056 21.76C4.33856 21.568 4.24256 21.36 4.24256 21.136C4.24256 20.848 4.38656 20.672 4.67456 20.608C4.96256 20.544 5.33056 20.512 5.77856 20.512C6.16256 20.512 6.69056 20.528 7.36256 20.56C8.03456 20.592 8.77056 20.64 9.57056 20.704C10.3706 20.736 11.1226 20.768 11.8266 20.8C12.5626 20.832 13.1706 20.848 13.6506 20.848C13.8746 20.848 14.0826 20.928 14.2746 21.088C14.4666 21.216 14.5946 21.408 14.6586 21.664C14.8186 22.24 14.9786 22.832 15.1386 23.44C15.3306 24.048 15.5386 24.672 15.7626 25.312L23.1546 43.696C23.2506 43.888 23.3946 44 23.5866 44.032C23.8106 44.064 23.9706 43.984 24.0666 43.792L32.6106 25.408C32.8026 24.672 32.9626 23.968 33.0906 23.296C33.2506 22.592 33.3946 22 33.5226 21.52C33.6186 21.104 33.8106 20.896 34.0986 20.896H35.9226C37.0106 20.896 38.1626 20.832 39.3786 20.704C40.5946 20.544 41.5226 20.464 42.1626 20.464C42.3866 20.464 42.6266 20.512 42.8826 20.608C43.1386 20.672 43.2666 20.816 43.2666 21.04C43.2666 21.296 43.1706 21.488 42.9786 21.616C42.7866 21.744 42.4826 21.888 42.0666 22.048C41.7146 22.176 41.3306 22.32 40.9146 22.48C40.4986 22.64 40.1146 22.8 39.7626 22.96C39.2506 23.184 38.8506 23.488 38.5626 23.872C38.2746 24.224 38.1466 24.704 38.1786 25.312C38.1786 27.584 38.2266 29.664 38.3226 31.552C38.4186 33.408 38.4986 35.184 38.5626 36.88C38.6586 38.576 38.7706 40.272 38.8986 41.968C39.0266 43.664 39.1386 45.472 39.2346 47.392C39.2986 48.32 39.6346 49.056 40.2426 49.6C40.8506 50.112 41.7146 50.48 42.8346 50.704C43.2826 50.8 43.6186 50.912 43.8426 51.04C44.0986 51.168 44.2266 51.36 44.2266 51.616C44.2266 51.808 44.1146 51.952 43.8906 52.048C43.6666 52.144 43.3626 52.192 42.9786 52.192C42.1786 52.192 41.4426 52.16 40.7706 52.096C40.0986 52.064 39.4266 52.032 38.7546 52C38.1146 51.968 37.4426 51.952 36.7386 51.952C36.0986 51.952 35.5066 51.968 34.9626 52C34.4186 52.032 33.8426 52.064 33.2346 52.096C32.6266 52.16 31.9066 52.192 31.0746 52.192C30.7226 52.192 30.4186 52.144 30.1626 52.048C29.9386 51.984 29.8266 51.84 29.8266 51.616C29.8266 51.392 29.9386 51.2 30.1626 51.04C30.4186 50.88 30.7706 50.768 31.2186 50.704C32.2426 50.544 32.9466 50.224 33.3306 49.744C33.7146 49.232 33.9066 48.448 33.9066 47.392C33.8746 45.184 33.8266 43.136 33.7626 41.248C33.7306 39.36 33.6666 37.504 33.5706 35.68C33.4746 33.824 33.3786 31.872 33.2826 29.824C33.2826 29.536 33.2026 29.408 33.0426 29.44C32.9146 29.44 32.7706 29.584 32.6106 29.872L22.2426 52.144C22.1466 52.4 21.9706 52.512 21.7146 52.48C21.4586 52.48 21.2986 52.368 21.2346 52.144C19.8586 48.4 18.4026 44.72 16.8666 41.104C15.3626 37.456 13.7786 33.648 12.1146 29.68C12.0186 29.488 11.8746 29.408 11.6826 29.44C11.5226 29.472 11.4266 29.6 11.3946 29.824C11.1706 31.84 10.9626 33.792 10.7706 35.68C10.6106 37.568 10.4826 39.44 10.3866 41.296C10.3226 43.152 10.2906 45.072 10.2906 47.056C10.2906 47.952 10.5626 48.736 11.1066 49.408C11.6826 50.048 12.4986 50.48 13.5546 50.704C14.0346 50.8 14.4026 50.912 14.6586 51.04C14.9466 51.168 15.0906 51.36 15.0906 51.616C15.0906 51.808 14.9626 51.952 14.7066 52.048C14.4506 52.144 14.1306 52.192 13.7466 52.192C12.8826 52.192 12.2266 52.16 11.7786 52.096C11.3306 52.064 10.9306 52.032 10.5786 52C10.2266 52 9.73056 52 9.09056 52C8.48256 52 7.93856 52.016 7.45856 52.048C7.01056 52.08 6.54656 52.112 6.06656 52.144C5.61856 52.176 5.09056 52.192 4.48256 52.192Z" fill="black"/>
<path d="M39.3492 52.1676C38.9979 52.1458 38.7144 52.064 38.4988 51.9223C38.2832 51.7807 38.1803 51.63 38.1903 51.4703C38.2062 51.2148 38.3459 51.0311 38.6093 50.9193C38.8748 50.7755 39.0883 50.6926 39.25 50.6706C40.4816 50.4587 41.3987 50.1471 42.0014 49.7357C42.6361 49.3264 42.9862 48.5947 43.0518 47.5408L44.4268 25.4555C44.4745 24.689 44.4295 24.1251 44.2916 23.7639C44.1558 23.3707 43.8703 23.0643 43.4351 22.8449C43.0318 22.6274 42.4359 22.4139 41.6474 22.2045C40.7331 21.9553 40.2899 21.607 40.3178 21.1599C40.3317 20.9363 40.4534 20.7836 40.6829 20.7017C40.9444 20.6218 41.2508 20.5928 41.6021 20.6147C42.4006 20.6644 43.1182 20.7251 43.755 20.7968C44.3917 20.8685 44.9966 20.9382 45.5695 21.0059C46.1424 21.0737 46.7801 21.1294 47.4828 21.1731C48.2174 21.2189 48.92 21.2626 49.5907 21.3044C50.2634 21.3142 50.9521 21.325 51.6567 21.3368C52.3613 21.3486 53.1129 21.3794 53.9113 21.4291C54.2946 21.4529 54.579 21.5187 54.7647 21.6265C54.9843 21.7043 55.0871 21.855 55.0732 22.0785C55.0573 22.334 54.9326 22.5347 54.6991 22.6805C54.4676 22.7943 54.1093 22.8842 53.6242 22.9502C52.3927 23.1621 51.4147 23.4218 50.6901 23.7294C49.9676 24.005 49.5775 24.6059 49.5199 25.5321L48.1389 47.7132C48.0773 48.7033 48.2402 49.4348 48.6275 49.9078C49.0488 50.3508 49.9302 50.6141 51.2716 50.6976L56.8288 51.0436C57.6592 51.0953 58.3858 51.0123 59.0085 50.7945C59.6632 50.5788 60.1761 50.3222 60.5473 50.0247C61.1879 49.5195 61.6828 49.0373 62.0321 48.5781C62.4152 48.089 62.8242 47.4412 63.2592 46.6346C63.4407 46.2933 63.6373 45.9688 63.8488 45.6614C64.0603 45.3539 64.2779 45.2072 64.5014 45.2211C64.725 45.235 64.8777 45.3567 64.9596 45.5863C65.0435 45.7839 65.0795 45.9785 65.0675 46.1701C65.0636 46.234 65.0426 46.3128 65.0047 46.4067C64.9668 46.5005 64.9449 46.5953 64.9389 46.6911C64.6617 47.5395 64.4063 48.2931 64.173 48.9519C63.9396 49.6107 63.7401 50.2395 63.5746 50.8384C63.441 51.4392 63.3204 52.089 63.2128 52.7876C63.1669 53.0092 63.0901 53.2128 62.9824 53.3985C62.8766 53.5522 62.696 53.6211 62.4405 53.6052C61.1949 53.5277 59.8704 53.4292 58.4672 53.3098C57.0639 53.1903 55.6446 53.0699 54.2094 52.9485C52.7722 52.859 51.3519 52.7546 49.9486 52.6352C48.5773 52.5177 47.2528 52.4192 45.9753 52.3397C45.2088 52.292 44.3455 52.2543 43.3853 52.2265C42.4571 52.2008 41.5928 52.1791 40.7924 52.1613C40.0219 52.1775 39.5408 52.1796 39.3492 52.1676Z" fill="black"/>
</svg>
