<svg width="52" height="67" viewBox="0 0 52 67" fill="none" xmlns="http://www.w3.org/2000/svg">
<path d="M4.352 14.04H22.352V17.4H4.352V14.04ZM5.264 27.096H21.44V30.456H5.264V27.096ZM3.68 43.752C8.192 42.504 15.248 40.392 22.064 38.328L22.496 41.64C16.16 43.704 9.44 45.864 4.496 47.4L3.68 43.752ZM11.456 15.336H14.912V42.888L11.456 43.656V15.336ZM27.296 12.888H43.952V16.248H27.296V12.888ZM27.296 24.456H43.952V27.768H27.296V24.456ZM26.96 36.216H43.856V39.48H26.96V36.216ZM42.704 12.888H46.304V50.232C46.304 52.488 45.728 53.592 44.24 54.216C42.8 54.84 40.304 54.888 36.368 54.888C36.176 53.88 35.648 52.2 35.072 51.24C38 51.384 40.784 51.336 41.6 51.336C42.416 51.288 42.704 51.048 42.704 50.184V12.888ZM25.184 12.888H28.688V29.832C28.688 37.896 27.536 48.36 19.04 54.936C18.512 54.216 17.12 53.016 16.352 52.536C24.368 46.344 25.184 37.272 25.184 29.832V12.888Z" fill="black"/>
</svg>
