<svg width="39" height="78" viewBox="0 0 39 78" fill="none" xmlns="http://www.w3.org/2000/svg">
<path d="M5.164 7.936H33.836V11.488H5.164V7.936ZM17.452 4.832H21.26V17.568H17.452V4.832ZM15.692 8.992L19.02 10.272C16.236 14.368 11.628 17.824 6.796 19.616C6.22 18.688 5.068 17.216 4.236 16.448C8.844 15.04 13.388 12.192 15.692 8.992ZM22.86 9.024C25.228 12.128 29.9 14.88 34.636 16.192C33.772 16.96 32.62 18.464 32.076 19.456C27.148 17.76 22.508 14.336 19.66 10.304L22.86 9.024ZM10.572 18.208H25.452V21.536H10.572V18.208ZM5.1 24.384H33.9V27.872H5.1V24.384ZM17.484 23.008H21.292V30.848C21.292 32.704 20.844 33.664 19.34 34.208C17.9 34.752 16.012 34.816 13.548 34.816C13.26 33.76 12.46 32.16 11.852 31.232C13.804 31.296 16.076 31.296 16.716 31.296C17.324 31.264 17.484 31.168 17.484 30.752V23.008ZM24.748 18.208H25.74L26.54 18.048L28.908 20.128C26.38 22.08 23.116 24.224 19.948 25.632C19.564 25.024 18.604 24.064 18.124 23.552C20.524 22.4 23.436 20.32 24.748 18.944V18.208Z" fill="#1E1A15"/>
<path d="M4.716 45.752H16.972V49.304H4.716V45.752ZM5.292 54.328H16.396V57.848H5.292V54.328ZM4.204 64.856C7.308 64.184 12.108 62.968 16.652 61.784L17.068 65.272C12.94 66.52 8.46 67.8 5.036 68.76L4.204 64.856ZM8.94 47.16H12.62V65.368L8.94 65.976V47.16ZM20.844 45.144H30.764V48.696H20.844V45.144ZM20.844 52.76H30.764V56.216H20.844V52.76ZM20.78 60.344H30.732V63.768H20.78V60.344ZM29.644 45.144H33.452V69.464C33.452 71.448 33.036 72.536 31.788 73.176C30.572 73.816 28.748 73.912 26.124 73.88C25.964 72.824 25.356 71.032 24.812 70.04C26.476 70.168 28.332 70.136 28.908 70.136C29.452 70.104 29.644 69.944 29.644 69.368V45.144ZM18.54 45.144H22.316V56.664C22.316 62.2 21.452 69.624 15.724 73.976C15.148 73.208 13.644 71.928 12.812 71.416C18.06 67.48 18.54 61.496 18.54 56.664V45.144Z" fill="#1E1A15"/>
</svg>
