<svg width="750" height="161" viewBox="0 0 750 161" fill="none" xmlns="http://www.w3.org/2000/svg">
<circle cx="375" cy="375.5" r="375" fill="#305F27" fill-opacity="0.1"/>
<path d="M309.584 85.28C309.157 85.28 308.751 85.22 308.364 85.1C307.991 84.98 307.664 84.8067 307.384 84.58C307.291 84.4067 307.224 84.1333 307.184 83.76C307.144 83.3867 307.124 83.0467 307.124 82.74C307.124 82.6067 307.224 82.54 307.424 82.54C307.504 82.54 307.571 82.56 307.624 82.6C307.691 82.6267 307.731 82.6667 307.744 82.72C307.944 83.3467 308.224 83.82 308.584 84.14C308.944 84.46 309.337 84.62 309.764 84.62C310.137 84.62 310.444 84.5 310.684 84.26C310.924 84.0067 311.044 83.7067 311.044 83.36C311.044 83 310.917 82.7 310.664 82.46C310.411 82.2067 310.024 81.92 309.504 81.6C309.077 81.3467 308.711 81.1 308.404 80.86C308.097 80.6067 307.864 80.3333 307.704 80.04C307.544 79.7333 307.464 79.3867 307.464 79C307.464 78.5333 307.577 78.12 307.804 77.76C308.044 77.4 308.377 77.1133 308.804 76.9C309.231 76.6867 309.744 76.58 310.344 76.58C310.771 76.58 311.131 76.6267 311.424 76.72C311.731 76.8 311.951 76.8867 312.084 76.98C312.191 77.1267 312.277 77.3667 312.344 77.7C312.424 78.0333 312.464 78.3667 312.464 78.7C312.464 78.8067 312.377 78.86 312.204 78.86C312.124 78.86 312.037 78.84 311.944 78.8C311.864 78.76 311.811 78.7067 311.784 78.64C311.611 78.1733 311.391 77.82 311.124 77.58C310.871 77.34 310.557 77.22 310.184 77.22C309.864 77.22 309.577 77.32 309.324 77.52C309.071 77.7067 308.944 77.98 308.944 78.34C308.944 78.6467 309.051 78.92 309.264 79.16C309.491 79.3867 309.844 79.6333 310.324 79.9C311.124 80.34 311.711 80.76 312.084 81.16C312.471 81.5467 312.664 82.0667 312.664 82.72C312.664 83.4933 312.384 84.1133 311.824 84.58C311.277 85.0467 310.531 85.28 309.584 85.28ZM319.103 85.3C318.423 85.3 317.81 85.1267 317.263 84.78C316.716 84.42 316.283 83.9333 315.963 83.32C315.643 82.7067 315.483 82.02 315.483 81.26C315.483 80.3933 315.676 79.6067 316.063 78.9C316.45 78.1933 316.97 77.6333 317.623 77.22C318.276 76.8067 318.996 76.6 319.783 76.6C320.73 76.6 321.543 76.8733 322.223 77.42C322.37 77.5533 322.443 77.68 322.443 77.8C322.443 77.8933 322.39 78.0133 322.283 78.16C322.19 78.2933 322.07 78.4133 321.923 78.52C321.79 78.6133 321.663 78.66 321.543 78.66C321.463 78.66 321.376 78.6333 321.283 78.58C321.203 78.5267 321.123 78.4667 321.043 78.4C320.723 78.1467 320.383 77.9267 320.023 77.74C319.676 77.54 319.376 77.44 319.123 77.44C318.523 77.44 318.043 77.7133 317.683 78.26C317.336 78.7933 317.163 79.5467 317.163 80.52C317.163 81.16 317.283 81.7267 317.523 82.22C317.776 82.7133 318.116 83.1 318.543 83.38C318.983 83.66 319.483 83.8 320.043 83.8C320.43 83.8 320.763 83.74 321.043 83.62C321.336 83.4867 321.643 83.2667 321.963 82.96C322.003 82.9333 322.043 82.9067 322.083 82.88C322.136 82.8533 322.183 82.84 322.223 82.84C322.37 82.84 322.443 82.94 322.443 83.14C322.443 83.2067 322.423 83.2933 322.383 83.4C322.343 83.4933 322.283 83.6 322.203 83.72C322.016 83.9867 321.77 84.2467 321.463 84.5C321.156 84.74 320.803 84.9333 320.403 85.08C320.003 85.2267 319.57 85.3 319.103 85.3ZM325.332 85.06C325.212 85.06 325.112 85.04 325.032 85C324.965 84.96 324.932 84.9 324.932 84.82C324.932 84.7133 324.972 84.64 325.052 84.6C325.145 84.5467 325.259 84.5 325.392 84.46C325.672 84.3933 325.865 84.3 325.972 84.18C326.092 84.06 326.152 83.9 326.152 83.7V79.3C326.152 78.9667 326.105 78.6867 326.012 78.46C325.919 78.22 325.719 78.0667 325.412 78C325.359 77.9867 325.305 77.9533 325.252 77.9C325.212 77.8467 325.192 77.78 325.192 77.7C325.192 77.5533 325.259 77.46 325.392 77.42C325.765 77.3133 326.165 77.1667 326.592 76.98C327.019 76.78 327.365 76.6067 327.632 76.46C327.712 76.4067 327.785 76.3667 327.852 76.34C327.919 76.3133 327.965 76.3 327.992 76.3C328.085 76.3 328.132 76.3533 328.132 76.46C328.132 76.5133 328.125 76.6267 328.112 76.8C328.112 76.9733 328.105 77.1667 328.092 77.38C328.079 77.5933 328.072 77.8 328.072 78C328.072 78.0533 328.085 78.08 328.112 78.08C328.325 77.8133 328.559 77.5667 328.812 77.34C329.079 77.1133 329.359 76.9333 329.652 76.8C329.945 76.6533 330.225 76.58 330.492 76.58C330.839 76.58 331.105 76.6533 331.292 76.8C331.479 76.9333 331.572 77.1133 331.572 77.34C331.572 77.4867 331.525 77.66 331.432 77.86C331.352 78.0467 331.239 78.2133 331.092 78.36C330.959 78.4933 330.812 78.56 330.652 78.56C330.559 78.56 330.459 78.54 330.352 78.5C330.245 78.4467 330.132 78.3933 330.012 78.34C329.905 78.2867 329.792 78.24 329.672 78.2C329.565 78.1467 329.459 78.12 329.352 78.12C329.019 78.12 328.712 78.24 328.432 78.48C328.152 78.72 328.012 79.1867 328.012 79.88V83.64C328.012 83.8533 328.099 84.02 328.272 84.14C328.445 84.26 328.705 84.3733 329.052 84.48C329.199 84.52 329.312 84.5667 329.392 84.62C329.472 84.66 329.512 84.7267 329.512 84.82C329.512 84.98 329.385 85.06 329.132 85.06C328.732 85.06 328.385 85.04 328.092 85C327.812 84.9733 327.499 84.96 327.152 84.96C326.925 84.96 326.725 84.9667 326.552 84.98C326.379 84.9933 326.199 85.0067 326.012 85.02C325.825 85.0467 325.599 85.06 325.332 85.06ZM337.88 85.28C337.12 85.28 336.427 85.1067 335.8 84.76C335.187 84.4 334.7 83.9133 334.34 83.3C333.98 82.6867 333.8 81.9867 333.8 81.2C333.8 80.6133 333.913 80.0467 334.14 79.5C334.367 78.9533 334.687 78.46 335.1 78.02C335.513 77.58 335.993 77.2333 336.54 76.98C337.087 76.7133 337.673 76.58 338.3 76.58C339.087 76.58 339.8 76.7733 340.44 77.16C341.08 77.5333 341.587 78.0267 341.96 78.64C342.333 79.2533 342.52 79.9267 342.52 80.66C342.52 81.46 342.347 82.2133 342 82.92C341.653 83.6267 341.133 84.2 340.44 84.64C339.76 85.0667 338.907 85.28 337.88 85.28ZM338.3 84.58C338.687 84.58 339.033 84.5067 339.34 84.36C339.647 84.2 339.887 83.96 340.06 83.64C340.22 83.3333 340.327 82.96 340.38 82.52C340.447 82.0667 340.48 81.6067 340.48 81.14C340.48 80.4733 340.373 79.8467 340.16 79.26C339.947 78.6733 339.653 78.2 339.28 77.84C338.907 77.48 338.467 77.3 337.96 77.3C337.653 77.3 337.373 77.3533 337.12 77.46C336.88 77.5533 336.66 77.72 336.46 77.96C336.207 78.2667 336.04 78.6667 335.96 79.16C335.88 79.64 335.84 80.1667 335.84 80.74C335.84 81.38 335.947 81.9933 336.16 82.58C336.373 83.1667 336.66 83.6467 337.02 84.02C337.393 84.3933 337.82 84.58 338.3 84.58ZM345.208 85.06C345.115 85.06 345.021 85.0467 344.928 85.02C344.848 84.9933 344.808 84.9333 344.808 84.84C344.808 84.7333 344.855 84.66 344.948 84.62C345.041 84.5667 345.148 84.5133 345.268 84.46C345.468 84.3933 345.655 84.32 345.828 84.24C346.001 84.16 346.088 83.98 346.088 83.7V73.8C346.088 73.4133 346.021 73.0933 345.888 72.84C345.768 72.5733 345.541 72.4067 345.208 72.34C345.101 72.3133 345.048 72.22 345.048 72.06C345.048 71.9133 345.095 71.8267 345.188 71.8C345.535 71.7333 345.861 71.6467 346.168 71.54C346.475 71.4333 346.761 71.3267 347.028 71.22C347.295 71.1133 347.535 71.02 347.748 70.94C347.828 70.9133 347.888 70.9 347.928 70.9C347.968 70.9 347.995 70.92 348.008 70.96C348.035 71 348.048 71.04 348.048 71.08C348.048 71.1867 348.028 71.4133 347.988 71.76C347.948 72.1067 347.928 72.6267 347.928 73.32V83.7C347.928 83.9667 348.015 84.1467 348.188 84.24C348.361 84.32 348.548 84.3933 348.748 84.46C348.868 84.5 348.975 84.5467 349.068 84.6C349.161 84.6533 349.208 84.7333 349.208 84.84C349.208 84.92 349.161 84.9733 349.068 85C348.988 85.0267 348.901 85.04 348.808 85.04C348.555 85.04 348.335 85.0333 348.148 85.02C347.961 85.0067 347.781 84.9933 347.608 84.98C347.435 84.9667 347.228 84.96 346.988 84.96C346.761 84.96 346.561 84.9667 346.388 84.98C346.215 84.9933 346.041 85.0067 345.868 85.02C345.695 85.0467 345.475 85.06 345.208 85.06ZM351.925 85.06C351.832 85.06 351.739 85.0467 351.645 85.02C351.565 84.9933 351.525 84.9333 351.525 84.84C351.525 84.7333 351.572 84.66 351.665 84.62C351.759 84.5667 351.865 84.5133 351.985 84.46C352.185 84.3933 352.372 84.32 352.545 84.24C352.719 84.16 352.805 83.98 352.805 83.7V73.8C352.805 73.4133 352.739 73.0933 352.605 72.84C352.485 72.5733 352.259 72.4067 351.925 72.34C351.819 72.3133 351.765 72.22 351.765 72.06C351.765 71.9133 351.812 71.8267 351.905 71.8C352.252 71.7333 352.579 71.6467 352.885 71.54C353.192 71.4333 353.479 71.3267 353.745 71.22C354.012 71.1133 354.252 71.02 354.465 70.94C354.545 70.9133 354.605 70.9 354.645 70.9C354.685 70.9 354.712 70.92 354.725 70.96C354.752 71 354.765 71.04 354.765 71.08C354.765 71.1867 354.745 71.4133 354.705 71.76C354.665 72.1067 354.645 72.6267 354.645 73.32V83.7C354.645 83.9667 354.732 84.1467 354.905 84.24C355.079 84.32 355.265 84.3933 355.465 84.46C355.585 84.5 355.692 84.5467 355.785 84.6C355.879 84.6533 355.925 84.7333 355.925 84.84C355.925 84.92 355.879 84.9733 355.785 85C355.705 85.0267 355.619 85.04 355.525 85.04C355.272 85.04 355.052 85.0333 354.865 85.02C354.679 85.0067 354.499 84.9933 354.325 84.98C354.152 84.9667 353.945 84.96 353.705 84.96C353.479 84.96 353.279 84.9667 353.105 84.98C352.932 84.9933 352.759 85.0067 352.585 85.02C352.412 85.0467 352.192 85.06 351.925 85.06ZM364.6 85.06C364.48 85.06 364.38 85.04 364.3 85C364.234 84.96 364.2 84.9 364.2 84.82C364.2 84.7133 364.24 84.64 364.32 84.6C364.4 84.5467 364.5 84.5067 364.62 84.48C364.954 84.4 365.18 84.3 365.3 84.18C365.42 84.06 365.48 83.8733 365.48 83.62V77.96C365.347 77.96 365.194 77.96 365.02 77.96C364.847 77.9467 364.654 77.9333 364.44 77.92C364.387 77.9067 364.327 77.8533 364.26 77.76C364.194 77.6533 364.16 77.56 364.16 77.48C364.16 77.4533 364.18 77.4267 364.22 77.4C364.26 77.3733 364.294 77.3533 364.32 77.34C364.534 77.2333 364.727 77.14 364.9 77.06C365.087 76.9667 365.28 76.8733 365.48 76.78C365.507 75.6467 365.674 74.7 365.98 73.94C366.287 73.18 366.674 72.58 367.14 72.14C367.62 71.6867 368.12 71.3667 368.64 71.18C369.174 70.98 369.674 70.88 370.14 70.88C370.94 70.88 371.527 71 371.9 71.24C372.287 71.4667 372.48 71.7867 372.48 72.2C372.48 72.48 372.414 72.7 372.28 72.86C372.147 73.0067 371.974 73.08 371.76 73.08C371.64 73.08 371.527 73.0333 371.42 72.94C371.314 72.8333 371.194 72.7133 371.06 72.58C370.874 72.38 370.64 72.1933 370.36 72.02C370.094 71.8333 369.74 71.74 369.3 71.74C368.7 71.74 368.22 72 367.86 72.52C367.5 73.0267 367.32 73.8267 367.32 74.92V76.64C367.32 76.7333 367.347 76.7933 367.4 76.82C367.454 76.8467 367.514 76.86 367.58 76.86H369.98C370.06 76.86 370.127 76.8867 370.18 76.94C370.234 76.9933 370.26 77.0533 370.26 77.12C370.26 77.2267 370.247 77.34 370.22 77.46C370.207 77.5667 370.18 77.66 370.14 77.74C370.087 77.8467 370.027 77.9 369.96 77.9H367.82C367.607 77.9 367.467 77.9333 367.4 78C367.347 78.0533 367.32 78.1333 367.32 78.24V83.5C367.32 83.7933 367.4 84.0067 367.56 84.14C367.734 84.2733 368.094 84.38 368.64 84.46C368.92 84.5133 369.06 84.6267 369.06 84.8C369.06 84.88 369.027 84.9467 368.96 85C368.894 85.04 368.807 85.06 368.7 85.06C368.3 85.06 367.907 85.04 367.52 85C367.147 84.9733 366.787 84.96 366.44 84.96C366.214 84.96 366.007 84.9667 365.82 84.98C365.647 84.9933 365.467 85.0067 365.28 85.02C365.094 85.0467 364.867 85.06 364.6 85.06ZM376.193 85.28C375.433 85.28 374.739 85.1067 374.113 84.76C373.499 84.4 373.013 83.9133 372.653 83.3C372.293 82.6867 372.113 81.9867 372.113 81.2C372.113 80.6133 372.226 80.0467 372.453 79.5C372.679 78.9533 372.999 78.46 373.413 78.02C373.826 77.58 374.306 77.2333 374.853 76.98C375.399 76.7133 375.986 76.58 376.613 76.58C377.399 76.58 378.113 76.7733 378.753 77.16C379.393 77.5333 379.899 78.0267 380.273 78.64C380.646 79.2533 380.833 79.9267 380.833 80.66C380.833 81.46 380.659 82.2133 380.313 82.92C379.966 83.6267 379.446 84.2 378.753 84.64C378.073 85.0667 377.219 85.28 376.193 85.28ZM376.613 84.58C376.999 84.58 377.346 84.5067 377.653 84.36C377.959 84.2 378.199 83.96 378.373 83.64C378.533 83.3333 378.639 82.96 378.693 82.52C378.759 82.0667 378.793 81.6067 378.793 81.14C378.793 80.4733 378.686 79.8467 378.473 79.26C378.259 78.6733 377.966 78.2 377.593 77.84C377.219 77.48 376.779 77.3 376.273 77.3C375.966 77.3 375.686 77.3533 375.433 77.46C375.193 77.5533 374.973 77.72 374.773 77.96C374.519 78.2667 374.353 78.6667 374.273 79.16C374.193 79.64 374.153 80.1667 374.153 80.74C374.153 81.38 374.259 81.9933 374.473 82.58C374.686 83.1667 374.973 83.6467 375.333 84.02C375.706 84.3933 376.133 84.58 376.613 84.58ZM383.974 85.06C383.854 85.06 383.754 85.04 383.674 85C383.607 84.96 383.574 84.9 383.574 84.82C383.574 84.7133 383.614 84.64 383.694 84.6C383.787 84.5467 383.9 84.5 384.034 84.46C384.314 84.3933 384.507 84.3 384.614 84.18C384.734 84.06 384.794 83.9 384.794 83.7V79.3C384.794 78.9667 384.747 78.6867 384.654 78.46C384.56 78.22 384.36 78.0667 384.054 78C384 77.9867 383.947 77.9533 383.894 77.9C383.854 77.8467 383.834 77.78 383.834 77.7C383.834 77.5533 383.9 77.46 384.034 77.42C384.407 77.3133 384.807 77.1667 385.234 76.98C385.66 76.78 386.007 76.6067 386.274 76.46C386.354 76.4067 386.427 76.3667 386.494 76.34C386.56 76.3133 386.607 76.3 386.634 76.3C386.727 76.3 386.774 76.3533 386.774 76.46C386.774 76.5133 386.767 76.6267 386.754 76.8C386.754 76.9733 386.747 77.1667 386.734 77.38C386.72 77.5933 386.714 77.8 386.714 78C386.714 78.0533 386.727 78.08 386.754 78.08C386.967 77.8133 387.2 77.5667 387.454 77.34C387.72 77.1133 388 76.9333 388.294 76.8C388.587 76.6533 388.867 76.58 389.134 76.58C389.48 76.58 389.747 76.6533 389.934 76.8C390.12 76.9333 390.214 77.1133 390.214 77.34C390.214 77.4867 390.167 77.66 390.074 77.86C389.994 78.0467 389.88 78.2133 389.734 78.36C389.6 78.4933 389.454 78.56 389.294 78.56C389.2 78.56 389.1 78.54 388.994 78.5C388.887 78.4467 388.774 78.3933 388.654 78.34C388.547 78.2867 388.434 78.24 388.314 78.2C388.207 78.1467 388.1 78.12 387.994 78.12C387.66 78.12 387.354 78.24 387.074 78.48C386.794 78.72 386.654 79.1867 386.654 79.88V83.64C386.654 83.8533 386.74 84.02 386.914 84.14C387.087 84.26 387.347 84.3733 387.694 84.48C387.84 84.52 387.954 84.5667 388.034 84.62C388.114 84.66 388.154 84.7267 388.154 84.82C388.154 84.98 388.027 85.06 387.774 85.06C387.374 85.06 387.027 85.04 386.734 85C386.454 84.9733 386.14 84.96 385.794 84.96C385.567 84.96 385.367 84.9667 385.194 84.98C385.02 84.9933 384.84 85.0067 384.654 85.02C384.467 85.0467 384.24 85.06 383.974 85.06ZM398.617 85.06C398.511 85.06 398.417 85.04 398.337 85C398.257 84.9733 398.217 84.9133 398.217 84.82C398.217 84.7267 398.257 84.6533 398.337 84.6C398.431 84.5467 398.544 84.5 398.677 84.46C398.864 84.3933 399.044 84.32 399.217 84.24C399.404 84.1467 399.497 83.9667 399.497 83.7V79.3C399.497 78.9667 399.457 78.68 399.377 78.44C399.297 78.1867 399.104 78.0333 398.797 77.98C398.744 77.9667 398.697 77.94 398.657 77.9C398.617 77.86 398.597 77.7933 398.597 77.7C398.597 77.54 398.657 77.4467 398.777 77.42C399.124 77.3267 399.431 77.2267 399.697 77.12C399.964 77.0133 400.211 76.9 400.437 76.78C400.664 76.6467 400.904 76.5067 401.157 76.36C401.184 76.3467 401.211 76.3333 401.237 76.32C401.277 76.2933 401.317 76.28 401.357 76.28C401.451 76.28 401.497 76.3333 401.497 76.44C401.497 76.5467 401.477 76.74 401.437 77.02C401.411 77.2867 401.397 77.5133 401.397 77.7C401.397 77.8333 401.411 77.9133 401.437 77.94H401.477C401.811 77.6067 402.224 77.3 402.717 77.02C403.224 76.74 403.831 76.6 404.537 76.6C404.991 76.6 405.384 76.72 405.717 76.96C406.051 77.1867 406.317 77.5467 406.517 78.04H406.577C406.991 77.6133 407.464 77.2667 407.997 77C408.531 76.7333 409.117 76.6 409.757 76.6C410.197 76.6 410.571 76.7267 410.877 76.98C411.184 77.2333 411.417 77.5733 411.577 78C411.751 78.4267 411.837 78.8933 411.837 79.4V83.72C411.837 83.9867 411.924 84.16 412.097 84.24C412.271 84.32 412.457 84.3933 412.657 84.46C412.791 84.5 412.897 84.5467 412.977 84.6C413.057 84.6533 413.097 84.7267 413.097 84.82C413.097 84.9 413.064 84.96 412.997 85C412.944 85.04 412.851 85.06 412.717 85.06C412.451 85.06 412.231 85.0467 412.057 85.02C411.884 85.0067 411.717 84.9933 411.557 84.98C411.397 84.9667 411.197 84.96 410.957 84.96C410.731 84.96 410.531 84.9667 410.357 84.98C410.197 84.9933 410.031 85.0067 409.857 85.02C409.684 85.0467 409.464 85.06 409.197 85.06C409.091 85.06 408.997 85.04 408.917 85C408.851 84.96 408.817 84.9 408.817 84.82C408.817 84.7133 408.857 84.64 408.937 84.6C409.017 84.5467 409.124 84.5 409.257 84.46C409.457 84.4067 409.631 84.34 409.777 84.26C409.924 84.1667 409.997 84 409.997 83.76V79.58C409.997 79.26 409.931 78.9667 409.797 78.7C409.677 78.42 409.511 78.2 409.297 78.04C409.084 77.8667 408.844 77.78 408.577 77.78C408.297 77.78 408.031 77.82 407.777 77.9C407.524 77.98 407.277 78.1133 407.037 78.3C406.731 78.54 406.577 78.9467 406.577 79.52V83.72C406.577 83.9867 406.657 84.1667 406.817 84.26C406.991 84.34 407.177 84.4067 407.377 84.46C407.497 84.5 407.597 84.5467 407.677 84.6C407.771 84.6533 407.817 84.7267 407.817 84.82C407.817 84.9 407.784 84.96 407.717 85C407.651 85.04 407.557 85.06 407.437 85.06C407.171 85.06 406.951 85.0467 406.777 85.02C406.604 85.0067 406.437 84.9933 406.277 84.98C406.117 84.9667 405.917 84.96 405.677 84.96C405.451 84.96 405.251 84.9667 405.077 84.98C404.917 84.9933 404.751 85.0067 404.577 85.02C404.404 85.0467 404.184 85.06 403.917 85.06C403.824 85.06 403.737 85.04 403.657 85C403.577 84.96 403.537 84.9 403.537 84.82C403.537 84.7133 403.584 84.64 403.677 84.6C403.771 84.5467 403.871 84.5 403.977 84.46C404.177 84.4067 404.351 84.34 404.497 84.26C404.657 84.1667 404.737 84 404.737 83.76V79.58C404.737 79.26 404.671 78.9667 404.537 78.7C404.417 78.4333 404.251 78.2133 404.037 78.04C403.824 77.8667 403.584 77.78 403.317 77.78C403.051 77.78 402.784 77.82 402.517 77.9C402.264 77.98 402.017 78.1133 401.777 78.3C401.484 78.5133 401.337 78.9133 401.337 79.5V83.72C401.337 83.9733 401.411 84.1467 401.557 84.24C401.704 84.32 401.877 84.3933 402.077 84.46C402.184 84.5 402.284 84.5467 402.377 84.6C402.471 84.64 402.517 84.7133 402.517 84.82C402.517 84.9 402.477 84.96 402.397 85C402.331 85.04 402.244 85.06 402.137 85.06C401.871 85.06 401.651 85.0467 401.477 85.02C401.304 85.0067 401.144 84.9933 400.997 84.98C400.851 84.9667 400.657 84.96 400.417 84.96C400.191 84.96 399.991 84.9667 399.817 84.98C399.644 84.9933 399.464 85.0067 399.277 85.02C399.104 85.0467 398.884 85.06 398.617 85.06ZM419.819 85.28C419.059 85.28 418.366 85.1067 417.739 84.76C417.126 84.4 416.639 83.9133 416.279 83.3C415.919 82.6867 415.739 81.9867 415.739 81.2C415.739 80.6133 415.852 80.0467 416.079 79.5C416.306 78.9533 416.626 78.46 417.039 78.02C417.452 77.58 417.932 77.2333 418.479 76.98C419.026 76.7133 419.612 76.58 420.239 76.58C421.026 76.58 421.739 76.7733 422.379 77.16C423.019 77.5333 423.526 78.0267 423.899 78.64C424.272 79.2533 424.459 79.9267 424.459 80.66C424.459 81.46 424.286 82.2133 423.939 82.92C423.592 83.6267 423.072 84.2 422.379 84.64C421.699 85.0667 420.846 85.28 419.819 85.28ZM420.239 84.58C420.626 84.58 420.972 84.5067 421.279 84.36C421.586 84.2 421.826 83.96 421.999 83.64C422.159 83.3333 422.266 82.96 422.319 82.52C422.386 82.0667 422.419 81.6067 422.419 81.14C422.419 80.4733 422.312 79.8467 422.099 79.26C421.886 78.6733 421.592 78.2 421.219 77.84C420.846 77.48 420.406 77.3 419.899 77.3C419.592 77.3 419.312 77.3533 419.059 77.46C418.819 77.5533 418.599 77.72 418.399 77.96C418.146 78.2667 417.979 78.6667 417.899 79.16C417.819 79.64 417.779 80.1667 417.779 80.74C417.779 81.38 417.886 81.9933 418.099 82.58C418.312 83.1667 418.599 83.6467 418.959 84.02C419.332 84.3933 419.759 84.58 420.239 84.58ZM427.6 85.06C427.48 85.06 427.38 85.04 427.3 85C427.233 84.96 427.2 84.9 427.2 84.82C427.2 84.7133 427.24 84.64 427.32 84.6C427.413 84.5467 427.527 84.5 427.66 84.46C427.94 84.3933 428.133 84.3 428.24 84.18C428.36 84.06 428.42 83.9 428.42 83.7V79.3C428.42 78.9667 428.373 78.6867 428.28 78.46C428.187 78.22 427.987 78.0667 427.68 78C427.627 77.9867 427.573 77.9533 427.52 77.9C427.48 77.8467 427.46 77.78 427.46 77.7C427.46 77.5533 427.527 77.46 427.66 77.42C428.033 77.3133 428.433 77.1667 428.86 76.98C429.287 76.78 429.633 76.6067 429.9 76.46C429.98 76.4067 430.053 76.3667 430.12 76.34C430.187 76.3133 430.233 76.3 430.26 76.3C430.353 76.3 430.4 76.3533 430.4 76.46C430.4 76.5133 430.393 76.6267 430.38 76.8C430.38 76.9733 430.373 77.1667 430.36 77.38C430.347 77.5933 430.34 77.8 430.34 78C430.34 78.0533 430.353 78.08 430.38 78.08C430.593 77.8133 430.827 77.5667 431.08 77.34C431.347 77.1133 431.627 76.9333 431.92 76.8C432.213 76.6533 432.493 76.58 432.76 76.58C433.107 76.58 433.373 76.6533 433.56 76.8C433.747 76.9333 433.84 77.1133 433.84 77.34C433.84 77.4867 433.793 77.66 433.7 77.86C433.62 78.0467 433.507 78.2133 433.36 78.36C433.227 78.4933 433.08 78.56 432.92 78.56C432.827 78.56 432.727 78.54 432.62 78.5C432.513 78.4467 432.4 78.3933 432.28 78.34C432.173 78.2867 432.06 78.24 431.94 78.2C431.833 78.1467 431.727 78.12 431.62 78.12C431.287 78.12 430.98 78.24 430.7 78.48C430.42 78.72 430.28 79.1867 430.28 79.88V83.64C430.28 83.8533 430.367 84.02 430.54 84.14C430.713 84.26 430.973 84.3733 431.32 84.48C431.467 84.52 431.58 84.5667 431.66 84.62C431.74 84.66 431.78 84.7267 431.78 84.82C431.78 84.98 431.653 85.06 431.4 85.06C431 85.06 430.653 85.04 430.36 85C430.08 84.9733 429.767 84.96 429.42 84.96C429.193 84.96 428.993 84.9667 428.82 84.98C428.647 84.9933 428.467 85.0067 428.28 85.02C428.093 85.0467 427.867 85.06 427.6 85.06ZM439.688 85.3C438.968 85.3 438.328 85.12 437.768 84.76C437.221 84.3867 436.788 83.8733 436.468 83.22C436.148 82.5533 435.988 81.7867 435.988 80.92C435.988 80.1333 436.168 79.4133 436.528 78.76C436.901 78.1067 437.395 77.5867 438.008 77.2C438.621 76.8 439.295 76.6 440.028 76.6C440.575 76.6 441.061 76.7133 441.488 76.94C441.928 77.1533 442.268 77.46 442.508 77.86C442.761 78.2467 442.888 78.6933 442.888 79.2C442.888 79.64 442.681 79.86 442.268 79.86H438.128C437.941 79.86 437.808 79.9133 437.728 80.02C437.648 80.1267 437.608 80.32 437.608 80.6C437.608 81.1867 437.741 81.7267 438.008 82.22C438.275 82.7 438.628 83.0867 439.068 83.38C439.508 83.6733 439.995 83.82 440.528 83.82C440.928 83.82 441.288 83.7467 441.608 83.6C441.941 83.44 442.248 83.22 442.528 82.94C442.568 82.8867 442.601 82.8467 442.628 82.82C442.668 82.7933 442.708 82.78 442.748 82.78C442.868 82.78 442.928 82.8533 442.928 83C442.928 83.2133 442.835 83.4667 442.648 83.76C442.461 84.04 442.221 84.3 441.928 84.54C441.648 84.7667 441.315 84.9467 440.928 85.08C440.555 85.2267 440.141 85.3 439.688 85.3ZM438.148 79.18H439.748C440.095 79.18 440.368 79.1733 440.568 79.16C440.768 79.1467 440.955 79.12 441.128 79.08C441.195 79.0533 441.241 79 441.268 78.92C441.295 78.8267 441.308 78.7133 441.308 78.58C441.308 78.2067 441.155 77.8933 440.848 77.64C440.541 77.3733 440.175 77.24 439.748 77.24C439.455 77.24 439.161 77.3267 438.868 77.5C438.588 77.6733 438.355 77.8933 438.168 78.16C437.981 78.4133 437.895 78.6733 437.908 78.94C437.908 79.1 437.988 79.18 438.148 79.18Z" fill="#1E1A15"/>
<path d="M368.905 125.712L375 136M375 136L381.095 125.712M375 136V102.571" stroke="#1E1A15" stroke-linecap="round" stroke-linejoin="round"/>
</svg>
